<svg width="56" height="57" viewBox="0 0 56 57" fill="none" xmlns="http://www.w3.org/2000/svg">
<path d="M28 56.9818C12.5689 56.9818 0 44.4129 0 28.9818H3.79556C3.79556 42.2973 14.6223 53.1862 28 53.1862C41.3777 53.1862 52.2044 42.2973 52.2044 28.9818H56C56 44.4129 43.4311 56.9818 28 56.9818Z" fill="black"/>
<path d="M56 28.9818H52.2044C52.2044 15.6662 41.3777 4.77731 28 4.77731C14.6223 4.77731 3.79556 15.6662 3.79556 28.9818H0C0 13.5506 12.5689 0.98175 28 0.98175C43.4311 0.98175 56 13.5506 56 28.9818Z" fill="black"/>
<path d="M27.9992 45.7818C18.728 45.7818 11.1992 38.2527 11.1992 28.9818C11.1992 27.9241 12.0703 27.053 13.128 27.053C14.1857 27.053 15.0568 27.9241 15.0568 28.9818C15.0568 36.1372 20.9058 41.9863 28.0612 41.9863C35.217 41.9863 41.0034 36.1373 41.0034 28.9818C41.0034 27.9241 41.8745 27.053 42.9322 27.053C43.9899 27.053 44.861 27.9241 44.861 28.9818C44.7989 38.253 37.2703 45.7818 27.9988 45.7818H27.9992Z" fill="black"/>
<path d="M24.2667 27.1772C23.2089 27.1772 22.3379 26.3061 22.3379 25.2484V17.7814C22.3379 16.7237 23.209 15.8526 24.2667 15.8526C25.3244 15.8526 26.1954 16.7237 26.1954 17.7814V25.2479C26.1959 26.3061 25.3248 27.1772 24.2667 27.1772Z" fill="black"/>
<path d="M31.7339 27.1772C30.6762 27.1772 29.8051 26.3061 29.8051 25.2484L29.8047 17.7814C29.8047 16.7237 30.6758 15.8526 31.7335 15.8526C32.7912 15.8526 33.6622 16.7237 33.6622 17.7814V25.2479C33.6627 26.3061 32.7916 27.1772 31.7339 27.1772H31.7339Z" fill="black"/>
</svg>
