<svg width="39" height="47" viewBox="0 0 39 47" fill="none" xmlns="http://www.w3.org/2000/svg">
<path d="M31.4017 19.8132C31.4311 20.7855 31.3095 21.7557 31.0417 22.6891C29.9885 17.8384 28.676 13.0467 27.1102 8.33717C26.9783 7.78268 26.4364 7.4275 25.8755 7.52773C25.3512 7.55448 24.9044 7.91755 24.771 8.42566L24.7705 8.42772C24.5119 9.50531 23.907 11.4119 23.0158 13.3049C22.1419 15.1613 20.9996 16.9894 19.6498 18.0171C18.8556 16.6952 18.4935 15.1573 18.6159 13.6184L18.6161 13.6157C18.8133 9.84808 19.4817 6.12017 20.6058 2.51935L20.606 2.51941L20.6075 2.51333C20.7243 2.03592 20.5335 1.53589 20.1289 1.25717L20.1289 1.25714C19.7238 0.97845 19.1887 0.978829 18.7844 1.25841L18.7844 1.25839L18.7827 1.2596C6.74023 9.96054 0.9 18.7883 0.9 28.222C0.9 33.1355 2.85183 37.848 6.32628 41.3221C9.80073 44.7966 14.5132 46.7484 19.4264 46.7484C24.3396 46.7484 29.0523 44.7966 32.5265 41.3221C36.0009 37.8477 37.9527 33.1352 37.9527 28.222H37.953L37.9525 28.2152C37.6625 23.9777 36.0575 19.9363 33.3617 16.6536C33.069 16.195 32.4923 16.0068 31.9853 16.2053L31.9845 16.2057C31.491 16.4043 31.1904 16.908 31.2503 17.4367L31.2505 17.4383C31.3524 18.2248 31.4027 19.017 31.4016 19.81H31.4016L31.4017 19.8132ZM19.5311 44.3816L19.5312 44.3809H19.4262C15.1407 44.3809 11.0304 42.6786 8.0005 39.648L7.92978 39.7187L8.00049 39.648C4.96992 36.6174 3.26756 32.5075 3.26756 28.2223C3.26756 20.3315 7.89055 12.7854 17.4328 5.20395C16.7276 7.95146 16.3301 10.7692 16.2479 13.605C15.9985 16.1256 16.8733 18.6283 18.6392 20.4447L18.6389 20.4449L18.6454 20.4505C19.0063 20.7635 19.5199 20.8287 19.9477 20.6165L19.9482 20.6163C21.4337 19.868 22.6758 18.5022 23.6829 16.9697C24.6319 15.5258 25.3771 13.9267 25.9236 12.5382C27.4116 16.9329 28.4691 21.4621 29.0816 26.0618C29.0841 26.5075 29.3367 26.9144 29.736 27.1142C30.137 27.3148 30.6172 27.2715 30.9757 27.0022L30.9758 27.0023L30.9796 26.9991C32.6168 25.6366 33.6047 23.655 33.7151 21.5394C34.7849 23.6172 35.4217 25.8923 35.585 28.2266C35.5844 31.0616 34.8379 33.8471 33.4201 36.3025C32.0018 38.759 29.962 40.7987 27.5056 42.2171C25.0795 43.6179 22.3312 44.3634 19.5311 44.3816Z" fill="black" stroke="black" stroke-width="0.2"/>
</svg>
