<svg width="52" height="46" viewBox="0 0 52 46" fill="none" xmlns="http://www.w3.org/2000/svg">
<path d="M48.9149 43.128L48.8506 43.0637L48.9149 43.128C50.2627 41.7798 51.1 39.9188 51.1 37.8714V16.7548C51.1 14.707 50.2632 12.8465 48.9149 11.4982L48.85 11.563L48.9149 11.4982C47.5667 10.1504 45.7057 9.31306 43.6582 9.31306H8.34175C6.29398 9.31306 4.43343 10.1499 3.08511 11.4982L3.0851 11.4982C1.73734 12.8464 0.9 14.7074 0.9 16.7548V37.8714C0.9 39.9191 1.7368 41.7797 3.08511 43.128L3.14996 43.0632L3.08512 43.128C4.43331 44.4758 6.29433 45.3131 8.34175 45.3131H43.6582C45.706 45.3131 47.5666 44.4763 48.9149 43.128ZM4.33141 12.7446L4.2607 12.6739L4.33141 12.7446C5.36134 11.7146 6.78103 11.0755 8.34175 11.0755H43.6582C45.2189 11.0755 46.6387 11.7147 47.6686 12.7446C48.6986 13.7745 49.3376 15.1942 49.3376 16.7549V37.8715C49.3376 39.4321 48.6985 40.8519 47.6686 41.8818C46.6387 42.9118 45.219 43.5509 43.6582 43.5509H8.34175C6.78115 43.5509 5.36132 42.9117 4.33141 41.8818C3.30146 40.8519 2.66237 39.4322 2.66237 37.8715V16.7549C2.66237 15.1943 3.3015 13.7745 4.33141 12.7446Z" fill="black" stroke="black" stroke-width="0.2"/>
<path d="M12.7541 5.2887C12.7451 5.28899 12.7315 5.28932 12.7116 5.28968L12.7115 5.28968C11.3948 5.31484 10.2108 5.86435 9.35745 6.73477L9.35743 6.73478C8.50147 7.6083 7.97422 8.8027 7.97422 10.1154L7.97429 10.1362L7.97429 10.1366C7.97432 10.1397 7.97438 10.146 7.97487 10.1515L7.97488 10.1516C7.97496 10.1525 7.97542 10.158 7.97699 10.165C7.97727 10.174 7.9776 10.1875 7.97796 10.2074L7.9777 10.2074L7.97805 10.2113L12.7541 5.2887ZM12.7541 5.2887C12.761 5.28715 12.7665 5.28669 12.7675 5.2866L12.7677 5.28659C12.7731 5.2861 12.7793 5.28604 12.7824 5.28601L12.7829 5.28601L12.8036 5.28594C13.2976 5.28594 13.7782 5.36242 14.2344 5.50388L14.2344 5.50388C14.7045 5.64969 15.1438 5.86529 15.5398 6.13832L12.7541 5.2887ZM9.7345 10.1879C9.73521 10.1837 9.73553 10.1803 9.73566 10.1788L9.73603 10.1735C9.73654 10.1642 9.73674 10.1463 9.73674 10.1157C9.73674 9.27826 10.07 8.51955 10.6112 7.9675L10.6112 7.96748C11.1537 7.41377 11.9021 7.0645 12.7319 7.0462C12.7384 7.04728 12.7442 7.04758 12.7457 7.04766L12.7459 7.04767C12.7552 7.04817 12.7731 7.04837 12.8036 7.04837C13.1271 7.04837 13.4338 7.09619 13.7176 7.18389C14.0141 7.27567 14.291 7.41205 14.5414 7.58458L14.5414 7.58459C14.9609 7.8734 15.3041 8.26216 15.5359 8.71416L15.536 8.71419C15.7601 9.15082 15.8827 9.64973 15.8723 10.1793L15.8723 10.1797C15.865 10.6646 16.2517 11.0639 16.7366 11.0718L16.7367 11.0718C17.2214 11.0791 17.6207 10.6926 17.6287 10.2078C17.6444 9.3831 17.4521 8.6023 17.0992 7.9151C16.7326 7.20056 16.1947 6.5895 15.5399 6.13835L9.7345 10.1879Z" fill="black" stroke="black" stroke-width="0.2"/>
<path d="M43.312 1.85067L43.3117 1.85072L14.9158 5.99077C14.9157 5.99078 14.9156 5.99078 14.9156 5.99079C14.4344 6.05911 14.1004 6.50508 14.1686 6.98597C14.2368 7.46725 14.6828 7.80133 15.1638 7.73315L15.1642 7.73309L43.5601 3.59305C43.5602 3.59304 43.5602 3.59303 43.5603 3.59302C44.0415 3.52468 44.3754 3.07872 44.3073 2.59784C44.239 2.11656 43.793 1.78249 43.312 1.85067Z" fill="black" stroke="black" stroke-width="0.2"/>
<path d="M45.2589 2.72202C45.2589 1.71579 44.4431 0.9 43.4369 0.9C42.4306 0.9 41.6148 1.7158 41.6148 2.72202C41.6148 3.72824 42.4306 4.54403 43.4369 4.54403C44.4431 4.54403 45.2589 3.72823 45.2589 2.72202Z" fill="black" stroke="black" stroke-width="0.2"/>
<path d="M7.02852 22.9308C7.48486 23.3872 8.11548 23.6707 8.81007 23.6707H43.1909C43.8854 23.6707 44.516 23.3872 44.9724 22.9308C45.4288 22.4745 45.7122 21.8439 45.7122 21.1493V16.5404C45.7122 15.8458 45.4288 15.2152 44.9724 14.7589C44.5161 14.3024 43.8854 14.019 43.1909 14.019H8.81007C8.11549 14.019 7.48493 14.3024 7.02854 14.7588C6.57213 15.2152 6.28867 15.8458 6.28867 16.5404V21.1493C6.28867 21.8439 6.57213 22.4744 7.02852 22.9308ZM7.02852 22.9308L7.09924 22.8601M7.02852 22.9308C7.02853 22.9308 7.02853 22.9308 7.02853 22.9308L7.09924 22.8601M7.09924 22.8601C7.53769 23.2986 8.14321 23.5707 8.81007 23.5707H43.1909C43.8577 23.5707 44.4632 23.2986 44.9017 22.8601C45.3402 22.4217 45.6122 21.8161 45.6122 21.1493V16.5404C45.6122 15.8735 45.3402 15.2681 44.9017 14.8296L7.09924 22.8601ZM8.27474 16.0053L8.27496 16.0051C8.41294 15.8667 8.60266 15.7815 8.81007 15.7815H43.1909C43.3982 15.7815 43.5875 15.8666 43.7261 16.0052L43.7262 16.0053C43.8646 16.1433 43.9498 16.333 43.9498 16.5404V21.1493C43.9498 21.3566 43.8646 21.5459 43.7261 21.6845L43.726 21.6846C43.588 21.823 43.3983 21.9082 43.1909 21.9082H8.81007C8.60276 21.9082 8.41341 21.8231 8.27485 21.6845L8.27474 21.6844C8.13635 21.5464 8.05116 21.3567 8.05116 21.1493V16.5404C8.05116 16.333 8.13635 16.1433 8.27474 16.0053Z" fill="black" stroke="black" stroke-width="0.2"/>
<path d="M15.0121 14.8999C15.0121 14.4132 14.6176 14.0187 14.1309 14.0187C13.6441 14.0187 13.2496 14.4132 13.2496 14.8999V18.8443C13.2496 19.3311 13.6441 19.7256 14.1309 19.7256C14.6176 19.7256 15.0121 19.3311 15.0121 18.8443V14.8999Z" fill="black" stroke="black" stroke-width="0.2"/>
<path d="M8.04921 28.8165C8.04921 28.3298 7.65474 27.9353 7.16797 27.9353C6.68119 27.9353 6.28672 28.3298 6.28672 28.8165V38.272C6.28672 38.7587 6.68119 39.1532 7.16797 39.1532C7.65474 39.1532 8.04921 38.7587 8.04921 38.272V28.8165Z" fill="black" stroke="black" stroke-width="0.2"/>
<path d="M12.9574 28.8165C12.9574 28.3298 12.5629 27.9353 12.0762 27.9353C11.5894 27.9353 11.1949 28.3298 11.1949 28.8165V38.272C11.1949 38.7587 11.5894 39.1532 12.0762 39.1532C12.5629 39.1532 12.9574 38.7587 12.9574 38.272V28.8165Z" fill="black" stroke="black" stroke-width="0.2"/>
<path d="M17.8676 28.8165C17.8676 28.3298 17.4731 27.9353 16.9863 27.9353C16.4996 27.9353 16.1051 28.3298 16.1051 28.8165V38.272C16.1051 38.7587 16.4996 39.1532 16.9863 39.1532C17.4731 39.1532 17.8676 38.7587 17.8676 38.272V28.8165Z" fill="black" stroke="black" stroke-width="0.2"/>
<path d="M22.7738 28.8165C22.7738 28.3298 22.3793 27.9353 21.8926 27.9353C21.4058 27.9353 21.0113 28.3298 21.0113 28.8165V38.272C21.0113 38.7587 21.4058 39.1532 21.8926 39.1532C22.3793 39.1532 22.7738 38.7587 22.7738 38.272V28.8165Z" fill="black" stroke="black" stroke-width="0.2"/>
<path d="M39.6266 27.2308H39.3852L39.3902 27.2358C37.8041 27.2965 36.3737 27.9643 35.3246 29.0133L35.3246 29.0133C34.224 30.1144 33.5426 31.6355 33.5426 33.3158C33.5426 34.9961 34.2236 36.5172 35.3246 37.6183C36.4257 38.7194 37.9468 39.4003 39.6271 39.4003C41.3074 39.4003 42.8285 38.7193 43.9295 37.6183C45.0306 36.5172 45.7116 34.9961 45.7116 33.3158C45.7116 31.6355 45.0301 30.1144 43.9291 29.0133C42.828 27.9122 41.3069 27.2308 39.6266 27.2308ZM42.6828 30.2591L42.6828 30.2592C43.4651 31.041 43.9486 32.1217 43.9486 33.3153C43.9486 34.5089 43.4651 35.5892 42.6828 36.3715L42.6828 36.3715C41.9009 37.1538 40.8202 37.6373 39.6266 37.6373C38.433 37.6373 37.3527 37.1538 36.5704 36.3715L36.5704 36.3715C35.7881 35.5896 35.3046 34.5089 35.3046 33.3153C35.3046 32.1217 35.7881 31.0415 36.5704 30.2591L36.5704 30.2591C37.3523 29.4768 38.433 28.9933 39.6266 28.9933C40.8202 28.9933 41.9004 29.4768 42.6828 30.2591Z" fill="black" stroke="black" stroke-width="0.2"/>
<path d="M42.6441 33.315C42.6441 32.482 42.3059 31.7273 41.7601 31.1815C41.2144 30.6352 40.4595 30.2975 39.6266 30.2975C38.7935 30.2975 38.0388 30.6357 37.493 31.1815C36.9467 31.7272 36.609 32.482 36.609 33.315C36.609 34.1481 36.9472 34.9028 37.493 35.4486C38.0387 35.9949 38.7935 36.3326 39.6266 36.3326C40.4596 36.3326 41.2143 35.9944 41.7601 35.4486C42.3064 34.9029 42.6441 34.1481 42.6441 33.315ZM39.6266 32.06C39.9733 32.06 40.2872 32.2003 40.5142 32.4273C40.7414 32.6549 40.8816 32.9683 40.8816 33.3151C40.8816 33.6618 40.7413 33.9757 40.5143 34.2027C40.2868 34.4299 39.9733 34.5701 39.6266 34.5701C39.2798 34.5701 38.9659 34.4298 38.7389 34.2028C38.5118 33.9753 38.3715 33.6618 38.3715 33.3151C38.3715 32.9683 38.5118 32.6545 38.7388 32.4274C38.9664 32.2003 39.2798 32.06 39.6266 32.06Z" fill="black" stroke="black" stroke-width="0.2"/>
</svg>
