<svg width="55" height="60" viewBox="0 0 55 60" fill="none" xmlns="http://www.w3.org/2000/svg">
<path d="M34.6917 12.0106V12.1322L35.0828 12.3021C35.2207 12.362 35.3674 12.3933 35.5164 12.3933C35.9362 12.3933 36.3228 12.1485 36.5022 11.7564L36.5022 11.7565L36.5058 11.7483L40.3589 3.01392L40.3589 3.01393L40.3604 3.01056C40.5957 2.4688 40.3538 1.83098 39.8058 1.59011L39.8059 1.59007L39.799 1.58714C39.2518 1.35409 38.6252 1.59445 38.3814 2.13988L38.3814 2.13988L38.3802 2.1427L34.5271 10.8765L34.5271 10.8765L34.5256 10.8799C34.3566 11.269 34.4342 11.7056 34.6917 12.0106Z" fill="black" stroke="black" stroke-width="1.3"/>
<path d="M43.7626 21.1563V20.938C43.6675 20.8662 43.5831 20.7779 43.5138 20.6749L43.5109 20.6706L43.511 20.6706C43.1811 20.172 43.3219 19.5017 43.8187 19.1739L43.7626 21.1563ZM43.7626 21.1563H44.4126C44.6077 21.1563 44.8186 21.1043 45.0099 20.9753L52.9511 15.7343C52.9511 15.7343 52.9512 15.7342 52.9512 15.7342C53.4453 15.4082 53.5913 14.7404 53.2595 14.2384C52.9319 13.7401 52.2602 13.6031 51.7632 13.9312C51.7632 13.9313 51.7631 13.9313 51.763 13.9314C51.763 13.9314 51.763 13.9314 51.7629 13.9314L43.8187 19.1738L43.7626 21.1563Z" fill="black" stroke="black" stroke-width="1.3"/>
<path d="M18.3293 11.7629L18.33 11.7645C18.5073 12.1633 18.8994 12.4084 19.3186 12.4084C19.4805 12.4084 19.6254 12.3699 19.7472 12.3182L19.7473 12.3182L19.7541 12.3152C20.2969 12.0775 20.5508 11.4391 20.3076 10.8909C20.3075 10.8905 20.3073 10.8901 20.3071 10.8897L16.4561 2.15849L16.4562 2.15849L16.454 2.15366C16.2114 1.61555 15.5915 1.36643 15.0369 1.60305L15.0369 1.603L15.0291 1.60645C14.4867 1.84633 14.2357 2.48274 14.4765 3.03022L14.4768 3.03087L18.3293 11.7629Z" fill="black" stroke="black" stroke-width="1.3"/>
<mask id="path-4-outside-1_502_2208" maskUnits="userSpaceOnUse" x="0.046875" y="12.4152" width="13" height="10" fill="black">
<rect fill="white" x="0.046875" y="12.4152" width="13" height="10"/>
<path d="M2.2412 15.2053L10.1876 20.4486C10.2607 20.4974 10.3433 20.52 10.4236 20.52C10.5626 20.52 10.6993 20.4498 10.7831 20.325C10.9127 20.1271 10.8598 19.8591 10.6595 19.7295L2.71433 14.4862C2.51523 14.3548 2.24896 14.4113 2.11879 14.6104C1.98685 14.8083 2.04153 15.0752 2.24123 15.2054L2.2412 15.2053Z"/>
</mask>
<path d="M2.2412 15.2053L10.1876 20.4486C10.2607 20.4974 10.3433 20.52 10.4236 20.52C10.5626 20.52 10.6993 20.4498 10.7831 20.325C10.9127 20.1271 10.8598 19.8591 10.6595 19.7295L2.71433 14.4862C2.51523 14.3548 2.24896 14.4113 2.11879 14.6104C1.98685 14.8083 2.04153 15.0752 2.24123 15.2054L2.2412 15.2053Z" fill="black"/>
<path d="M2.2412 15.2053L2.62351 13.9628L1.52523 16.2904L2.2412 15.2053ZM10.1876 20.4486L10.9087 19.367L10.9036 19.3636L10.1876 20.4486ZM10.7831 20.325L11.8624 21.0497L11.8666 21.0434L11.8708 21.037L10.7831 20.325ZM10.6595 19.7295L9.94344 20.8146L9.9534 20.821L10.6595 19.7295ZM2.71433 14.4862L3.43037 13.4012L3.4302 13.4011L2.71433 14.4862ZM2.11879 14.6104L3.20051 15.3316L3.2069 15.3218L2.11879 14.6104ZM2.24123 15.2054L1.85892 16.4479L2.9511 14.1163L2.24123 15.2054ZM1.52523 16.2904L9.47163 21.5337L10.9036 19.3636L2.95717 14.1203L1.52523 16.2904ZM9.4665 21.5303C9.76407 21.7287 10.1001 21.82 10.4236 21.82V19.22C10.5865 19.22 10.7573 19.2661 10.9087 19.367L9.4665 21.5303ZM10.4236 21.82C10.9974 21.82 11.538 21.5327 11.8624 21.0497L9.70388 19.6003C9.86061 19.3669 10.1279 19.22 10.4236 19.22V21.82ZM11.8708 21.037C12.3859 20.2503 12.1852 19.1681 11.3656 18.638L9.9534 20.821C9.53445 20.55 9.43955 20.0039 9.69547 19.613L11.8708 21.037ZM11.3756 18.6445L3.43037 13.4012L1.99829 15.5712L9.94347 20.8145L11.3756 18.6445ZM3.4302 13.4011C2.62521 12.87 1.55171 13.1021 1.03069 13.8991L3.2069 15.3218C2.94621 15.7205 2.40524 15.8397 1.99846 15.5713L3.4302 13.4011ZM1.03712 13.8893C0.503839 14.6893 0.726031 15.7695 1.53136 16.2944L2.9511 14.1163C3.35703 14.3809 3.46986 14.9274 3.20046 15.3315L1.03712 13.8893ZM2.62354 13.9628L2.62351 13.9628L1.85889 16.4479L1.85892 16.4479L2.62354 13.9628Z" fill="black" mask="url(#path-4-outside-1_502_2208)"/>
<path d="M40.3639 37.0143C41.0866 35.3249 41.5002 33.4684 41.5002 31.5118C41.5002 23.7483 35.186 17.4363 27.421 17.4363C19.6597 17.4363 13.3443 23.7484 13.3443 31.5118C13.3443 39.2768 19.6595 45.5916 27.421 45.5916C32.4586 45.5916 36.8753 42.9293 39.3617 38.9469C39.3801 38.9556 39.3989 38.9644 39.4183 38.9736C39.7572 39.1343 40.2393 39.3785 40.8173 39.7143C41.9743 40.3865 43.5091 41.4223 45.0468 42.8855C48.0162 45.7111 50.9938 50.125 51.2956 56.6235L3.5509 56.6229C3.96526 47.7286 9.40277 42.7479 12.7176 40.5221L12.7187 40.5213C13.2182 40.1844 13.3472 39.5075 13.0126 39.0107L13.0118 39.0096C12.676 38.5132 12.0038 38.3815 11.505 38.7131L11.5024 38.7149C7.72376 41.2537 1.35 47.1178 1.35 57.7103C1.35 58.3107 1.83363 58.7984 2.43684 58.7984H52.4079C53.0099 58.7984 53.4947 58.3113 53.4947 57.7103C53.4953 44.1533 43.0984 38.3168 40.3639 37.0143ZM27.4205 43.4173C20.8586 43.4173 15.518 38.0764 15.518 31.5124C15.518 24.9526 20.8584 19.6111 27.4205 19.6111C33.9839 19.6111 39.3248 24.9533 39.3248 31.5124C39.3243 38.0763 33.9831 43.4173 27.4205 43.4173Z" fill="black" stroke="black" stroke-width="1.3"/>
<path d="M13.6176 31.1879C13.6176 30.3194 13.0964 29.6071 12.3738 29.2798C12.8135 21.5354 19.0902 15.7699 27.4213 15.7699C35.6091 15.7699 42.0176 21.6583 42.4724 29.2773C41.7492 29.6052 41.2271 30.3181 41.2271 31.1873V33.9658C41.2271 35.1425 42.1819 36.097 43.357 36.097H43.8444C45.0207 36.097 45.9707 35.1414 45.9707 33.9658V31.1879C45.9707 30.2889 45.4139 29.5525 44.648 29.2425C44.1706 20.3776 36.7541 13.5912 27.4207 13.5912C18.0898 13.5912 10.6767 20.3783 10.2009 29.2399C9.43462 29.5507 8.87344 30.2863 8.87344 31.1867V33.9653C8.87344 35.1414 9.82765 36.0964 11.0016 36.0964H11.4883C12.6637 36.0964 13.6176 35.1424 13.6176 33.9653V31.1879ZM11.0483 31.234H11.4422V33.9233H11.0483V31.234ZM43.4013 31.234H43.7958V33.9233H43.4007L43.4013 31.234Z" fill="black" stroke="black" stroke-width="1.3"/>
<path d="M27.4208 38.1014C28.6257 38.1014 29.6024 37.1244 29.6024 35.9192C29.6024 34.7146 28.6256 33.7377 27.4208 33.7377C26.2157 33.7377 25.2387 34.7143 25.2387 35.9192C25.2387 37.1245 26.2155 38.1014 27.4208 38.1014Z" fill="black" stroke="black" stroke-width="1.3"/>
<path d="M21.2915 29.9871C22.1485 29.9871 22.8437 29.2919 22.8437 28.4349C22.8437 27.5779 22.1485 26.8827 21.2915 26.8827C20.4341 26.8827 19.7387 27.5776 19.7387 28.4349C19.7387 29.2923 20.4341 29.9871 21.2915 29.9871Z" fill="black" stroke="black" stroke-width="1.3"/>
<path d="M33.5546 29.9871C34.4125 29.9871 35.1068 29.2917 35.1068 28.4349C35.1068 27.5781 34.4125 26.8827 33.5546 26.8827C32.6975 26.8827 32.0023 27.5779 32.0023 28.4349C32.0023 29.292 32.6975 29.9871 33.5546 29.9871Z" fill="black" stroke="black" stroke-width="1.3"/>
</svg>
