<svg width="53" height="57" viewBox="0 0 53 57" fill="none" xmlns="http://www.w3.org/2000/svg">
<path d="M52.661 0.98175L16.2384 10.6187V40.5914C14.4674 39.5493 12.4502 38.9993 10.3955 38.9982C4.62871 38.9982 0 43.0199 0 48.0281C0 53.0358 4.62871 56.9817 10.3955 56.9817C16.1623 56.9817 20.791 52.9601 20.791 47.9518L20.7915 14.1092L48.1084 6.90069L48.1079 29.0578C46.3374 28.0156 44.3202 27.4656 42.2655 27.4646C36.4987 27.4646 31.87 31.4862 31.87 36.4944C31.8695 41.5021 36.5745 45.4481 42.2655 45.4481C47.9565 45.4481 52.661 41.4264 52.661 36.4182V0.98175ZM10.3956 52.4287C7.20864 52.4287 4.55269 50.4559 4.55269 47.9518C4.55269 45.4478 7.20877 43.475 10.3956 43.475C13.5826 43.475 16.2385 45.4478 16.2385 47.9518C16.2385 50.4559 13.583 52.4287 10.3956 52.4287ZM42.2654 40.8952C39.0784 40.8952 36.4225 38.9225 36.4225 36.4184C36.4225 33.9138 39.078 32.0168 42.2654 32.0168C45.4524 32.0168 48.1083 33.9896 48.1083 36.4936C48.1078 38.9982 45.528 40.8952 42.2654 40.8952Z" fill="black"/>
</svg>
