<svg width="51" height="52" viewBox="0 0 51 52" fill="none" xmlns="http://www.w3.org/2000/svg">
<path fill-rule="evenodd" clip-rule="evenodd" d="M36.3496 40.1488C35.3836 40.1488 34.5996 39.3648 34.5996 38.3988V30.8528C34.5996 29.8868 35.3836 29.1028 36.3496 29.1028C37.3156 29.1028 38.0996 29.8868 38.0996 30.8528V38.3988C38.0996 39.3648 37.3156 40.1488 36.3496 40.1488Z" fill="black"/>
<path fill-rule="evenodd" clip-rule="evenodd" d="M25.6387 40.1488C24.6727 40.1488 23.8887 39.3648 23.8887 38.3988V14.7318C23.8887 13.7658 24.6727 12.9818 25.6387 12.9818C26.6047 12.9818 27.3887 13.7658 27.3887 14.7318V38.3988C27.3887 39.3648 26.6047 40.1488 25.6387 40.1488Z" fill="black"/>
<path fill-rule="evenodd" clip-rule="evenodd" d="M14.75 40.1511C13.784 40.1511 13 39.3671 13 38.4011V22.3944C13 21.4284 13.784 20.6444 14.75 20.6444C15.716 20.6444 16.5 21.4284 16.5 22.3944V38.4011C16.5 39.3671 15.716 40.1511 14.75 40.1511Z" fill="black"/>
<path fill-rule="evenodd" clip-rule="evenodd" d="M14.1493 4.48175C7.68133 4.48175 3.5 8.90808 3.5 15.7634V36.3668C3.5 43.2221 7.68133 47.6484 14.1493 47.6484H36.0173C42.4877 47.6484 46.6667 43.2221 46.6667 36.3668V15.7634C46.6667 8.90808 42.4877 4.48175 36.0173 4.48175H14.1493ZM36.0173 51.1484H14.1493C5.68633 51.1484 0 45.2078 0 36.3668V15.7634C0 6.92242 5.68633 0.98175 14.1493 0.98175H36.0173C44.4803 0.98175 50.1667 6.92242 50.1667 15.7634V36.3668C50.1667 45.2078 44.4803 51.1484 36.0173 51.1484Z" fill="black"/>
</svg>
