<svg width="50" height="47" viewBox="0 0 50 47" fill="none" xmlns="http://www.w3.org/2000/svg">
<path d="M13.7471 17.7933V24.0573H7.48318V17.7933H13.7471ZM15.8536 15.6868H5.37695V26.1635H15.8536V15.6868Z" fill="black"/>
<path d="M28.1046 17.7933V24.0573H21.8963V17.7933H28.1046ZM30.2665 15.6868H19.7344V26.1635H30.2111V15.6868H30.2665Z" fill="black"/>
<path d="M42.517 17.7933V24.0573H36.2531V17.7933H42.517ZM44.6232 15.6868H34.1465V26.1635H44.6232V15.6868Z" fill="black"/>
<path d="M13.7471 32.0948V38.3588H7.48318V32.0948H13.7471ZM15.8536 29.933H5.37695V40.4096H15.8536V29.933Z" fill="black"/>
<path d="M28.1046 32.0948V38.3588H21.8963V32.0948H28.1046ZM30.2665 29.933H19.7344V40.4096H30.2111V29.933H30.2665Z" fill="black"/>
<path d="M42.517 32.0948V38.3588H36.2531V32.0948H42.517ZM44.6232 29.933H34.1465V40.4096H44.6232V29.933Z" fill="black"/>
<path d="M35.5324 10.1437C34.9226 10.1437 34.4238 9.64489 34.4238 9.03515V1.10854C34.4238 0.498771 34.9226 0 35.5324 0C36.1421 0 36.6409 0.4988 36.6409 1.10854V9.03515C36.6413 9.64492 36.1421 10.1437 35.5324 10.1437Z" fill="black"/>
<path d="M14.4683 10.1437C13.8585 10.1437 13.3598 9.64489 13.3598 9.03515L13.3594 1.10854C13.3594 0.498771 13.8582 0 14.4679 0C15.0777 0 15.5765 0.4988 15.5765 1.10854V9.03515C15.5768 9.64492 15.078 10.1437 14.4683 10.1437H14.4683Z" fill="black"/>
<path d="M17.793 3.15924H32.2053V5.26576H17.793V3.15924Z" fill="black"/>
<path d="M45.7315 3.15923H38.8579V5.26575H45.7315C46.8958 5.26575 47.8381 6.20805 47.8381 7.37227V42.0728C47.8381 43.2371 46.8958 44.1793 45.7315 44.1793L4.26829 44.1789C3.10401 44.1789 2.16176 43.2366 2.16176 42.0724L2.16215 7.42732C2.16215 6.26305 3.10445 5.3208 4.26867 5.3208H11.1421V3.21428H4.26838C1.94023 3.21428 0 5.09887 0 7.48265V42.1832C0 44.5113 1.8846 46.4516 4.26838 46.4516H45.7316C48.0598 46.4516 50 44.567 50 42.1832V7.42722C50 5.04344 48.0601 3.15884 45.732 3.15884L45.7315 3.15923Z" fill="black"/>
</svg>
