<svg width="56" height="57" viewBox="0 0 56 57" fill="none" xmlns="http://www.w3.org/2000/svg">
<path fill-rule="evenodd" clip-rule="evenodd" d="M14.5827 8.31509C8.16602 8.31509 8.16602 8.80042 8.16602 14.7318V14.7901C8.16602 17.3731 8.16602 19.2398 8.79835 20.0284C9.41668 20.7938 11.253 21.1484 14.5827 21.1484C17.9123 21.1484 19.7487 20.7914 20.367 20.0261C20.9993 19.2398 20.9993 17.3731 20.9993 14.7878C20.9993 8.80042 20.9993 8.31509 14.5827 8.31509ZM14.5827 24.6484C10.6487 24.6484 7.69702 24.2354 6.07535 22.2218C4.66602 20.4741 4.66602 18.0894 4.66602 14.7901L6.41602 14.7318H4.66602C4.66602 8.03509 5.08835 4.81509 14.5827 4.81509C24.077 4.81509 24.4993 8.03509 24.4993 14.7318C24.4993 18.0871 24.4993 20.4741 23.09 22.2218C21.4683 24.2354 18.5167 24.6484 14.5827 24.6484Z" fill="black"/>
<path fill-rule="evenodd" clip-rule="evenodd" d="M40.2487 8.31509C33.832 8.31509 33.832 8.80042 33.832 14.7318V14.7901C33.832 17.3731 33.832 19.2398 34.4644 20.0284C35.0827 20.7938 36.919 21.1484 40.2487 21.1484C43.5784 21.1484 45.4147 20.7914 46.033 20.0261C46.6654 19.2398 46.6654 17.3731 46.6654 14.7878C46.6654 8.80042 46.6654 8.31509 40.2487 8.31509ZM40.2487 24.6484C36.3147 24.6484 33.363 24.2354 31.7414 22.2218C30.332 20.4741 30.332 18.0894 30.332 14.7901L32.082 14.7318H30.332C30.332 8.03509 30.7544 4.81509 40.2487 4.81509C49.743 4.81509 50.1654 8.03509 50.1654 14.7318C50.1654 18.0871 50.1654 20.4741 48.756 22.2218C47.1344 24.2354 44.1827 24.6484 40.2487 24.6484Z" fill="black"/>
<path fill-rule="evenodd" clip-rule="evenodd" d="M14.5827 33.9818C8.16602 33.9818 8.16602 34.4671 8.16602 40.3984V40.4568C8.16602 43.0398 8.16602 44.9064 8.79835 45.6951C9.41668 46.4604 11.253 46.8151 14.5827 46.8151C17.9123 46.8151 19.7487 46.4581 20.367 45.6928C20.9993 44.9064 20.9993 43.0398 20.9993 40.4544C20.9993 34.4671 20.9993 33.9818 14.5827 33.9818ZM14.5827 50.3151C10.6487 50.3151 7.69702 49.9021 6.07535 47.8884C4.66602 46.1408 4.66602 43.7561 4.66602 40.4568L6.41602 40.3984H4.66602C4.66602 33.7018 5.08835 30.4818 14.5827 30.4818C24.077 30.4818 24.4993 33.7018 24.4993 40.3984C24.4993 43.7538 24.4993 46.1408 23.09 47.8884C21.4683 49.9021 18.5167 50.3151 14.5827 50.3151Z" fill="black"/>
<path fill-rule="evenodd" clip-rule="evenodd" d="M40.2487 33.9818C33.832 33.9818 33.832 34.4671 33.832 40.3984V40.4568C33.832 43.0398 33.832 44.9064 34.4644 45.6951C35.0827 46.4604 36.919 46.8151 40.2487 46.8151C43.5784 46.8151 45.4147 46.4581 46.033 45.6928C46.6654 44.9064 46.6654 43.0398 46.6654 40.4544C46.6654 34.4671 46.6654 33.9818 40.2487 33.9818ZM40.2487 50.3151C36.3147 50.3151 33.363 49.9021 31.7414 47.8884C30.332 46.1408 30.332 43.7561 30.332 40.4568L32.082 40.3984H30.332C30.332 33.7018 30.7544 30.4818 40.2487 30.4818C49.743 30.4818 50.1654 33.7018 50.1654 40.3984C50.1654 43.7538 50.1654 46.1408 48.756 47.8884C47.1344 49.9021 44.1827 50.3151 40.2487 50.3151Z" fill="black"/>
</svg>
